<svg width="280" height="21" viewBox="0 0 280 21" fill="none" xmlns="http://www.w3.org/2000/svg">
<path d="M12.8849 6.36222H10.2287C10.1529 5.92661 10.0133 5.54072 9.80966 5.20455C9.60606 4.86364 9.35275 4.57481 9.04972 4.33807C8.74669 4.10133 8.40104 3.92377 8.01278 3.8054C7.62926 3.68229 7.21496 3.62074 6.76989 3.62074C5.97917 3.62074 5.27841 3.8196 4.66761 4.21733C4.05682 4.61032 3.5786 5.18797 3.23295 5.95028C2.88731 6.70786 2.71449 7.63352 2.71449 8.72727C2.71449 9.83996 2.88731 10.7775 3.23295 11.5398C3.58333 12.2973 4.06155 12.8703 4.66761 13.2585C5.27841 13.642 5.9768 13.8338 6.76278 13.8338C7.19839 13.8338 7.60559 13.777 7.98438 13.6634C8.3679 13.545 8.71117 13.3722 9.0142 13.1449C9.32197 12.9176 9.58002 12.6383 9.78835 12.3068C10.0014 11.9754 10.1482 11.5966 10.2287 11.1705L12.8849 11.1847C12.7855 11.8759 12.5701 12.5246 12.2386 13.1307C11.9119 13.7367 11.4834 14.2718 10.9531 14.7358C10.4228 15.1951 9.80256 15.5549 9.09233 15.8153C8.3821 16.071 7.59375 16.1989 6.72727 16.1989C5.44886 16.1989 4.30777 15.9029 3.30398 15.3111C2.30019 14.7192 1.50947 13.8646 0.931818 12.7472C0.354167 11.6297 0.0653409 10.2898 0.0653409 8.72727C0.0653409 7.16004 0.356534 5.82008 0.93892 4.70739C1.52131 3.58996 2.31439 2.73532 3.31818 2.14347C4.32197 1.55161 5.45833 1.25568 6.72727 1.25568C7.53693 1.25568 8.28977 1.36932 8.9858 1.59659C9.68182 1.82386 10.3021 2.15767 10.8466 2.59801C11.3911 3.03362 11.8385 3.56866 12.1889 4.20312C12.544 4.83286 12.776 5.55256 12.8849 6.36222ZM27.3523 16V5.09091H29.8097V6.9446H29.9375C30.1648 6.3196 30.5412 5.83191 31.0668 5.48153C31.5923 5.12642 32.2197 4.94886 32.9489 4.94886C33.6875 4.94886 34.3101 5.12879 34.8168 5.48864C35.3281 5.84375 35.688 6.32907 35.8963 6.9446H36.0099C36.2514 6.33854 36.6586 5.85559 37.2315 5.49574C37.8092 5.13116 38.4934 4.94886 39.2841 4.94886C40.2879 4.94886 41.107 5.2661 41.7415 5.90057C42.3759 6.53504 42.6932 7.4607 42.6932 8.67756V16H40.1151V9.07528C40.1151 8.3982 39.9351 7.90341 39.5753 7.59091C39.2154 7.27367 38.7751 7.11506 38.2543 7.11506C37.634 7.11506 37.1487 7.30919 36.7983 7.69744C36.4527 8.08097 36.2798 8.58049 36.2798 9.19602V16H33.7585V8.96875C33.7585 8.4053 33.5881 7.95549 33.2472 7.61932C32.911 7.28314 32.4706 7.11506 31.9261 7.11506C31.5568 7.11506 31.2206 7.20975 30.9176 7.39915C30.6146 7.58381 30.3731 7.84659 30.1932 8.1875C30.0133 8.52367 29.9233 8.91667 29.9233 9.36648V16H27.3523ZM70.2038 11.4119V5.09091H72.7749V16H70.282V14.0611H70.1683C69.9221 14.6719 69.5173 15.1714 68.9538 15.5597C68.3951 15.9479 67.7062 16.142 66.8871 16.142C66.1721 16.142 65.54 15.9834 64.9908 15.6662C64.4463 15.3442 64.0201 14.8778 63.7124 14.267C63.4046 13.6515 63.2507 12.9081 63.2507 12.0369V5.09091H65.8217V11.6392C65.8217 12.3305 66.0111 12.8797 66.3899 13.2869C66.7687 13.6941 67.2659 13.8977 67.8814 13.8977C68.2602 13.8977 68.6271 13.8054 68.9822 13.6207C69.3374 13.4361 69.6286 13.1615 69.8558 12.7969C70.0878 12.4276 70.2038 11.9659 70.2038 11.4119ZM87.6062 16V5.09091H90.1772V16H87.6062ZM88.8988 3.54261C88.4916 3.54261 88.1412 3.40767 87.8477 3.13778C87.5541 2.86316 87.4073 2.53409 87.4073 2.15057C87.4073 1.76231 87.5541 1.43324 87.8477 1.16335C88.1412 0.88873 88.4916 0.75142 88.8988 0.75142C89.3107 0.75142 89.6611 0.88873 89.9499 1.16335C90.2435 1.43324 90.3903 1.76231 90.3903 2.15057C90.3903 2.53409 90.2435 2.86316 89.9499 3.13778C89.6611 3.40767 89.3107 3.54261 88.8988 3.54261ZM102.017 20.0909C101.666 20.0909 101.342 20.0625 101.044 20.0057C100.75 19.9536 100.516 19.892 100.341 19.821L100.937 17.8182C101.311 17.9271 101.645 17.9792 101.939 17.9744C102.232 17.9697 102.49 17.8774 102.713 17.6974C102.94 17.5223 103.132 17.2287 103.288 16.8168L103.508 16.2273L99.5522 5.09091H102.279L104.794 13.3295H104.907L107.429 5.09091H110.163L105.795 17.321C105.592 17.8987 105.322 18.3935 104.985 18.8054C104.649 19.2221 104.237 19.5393 103.75 19.7571C103.267 19.9796 102.689 20.0909 102.017 20.0909ZM124.922 5.45312C124.855 4.83286 124.576 4.34991 124.083 4.00426C123.596 3.65862 122.961 3.4858 122.18 3.4858C121.631 3.4858 121.16 3.56866 120.767 3.73438C120.374 3.90009 120.073 4.125 119.865 4.40909C119.656 4.69318 119.55 5.01752 119.545 5.3821C119.545 5.68513 119.614 5.94792 119.751 6.17045C119.893 6.39299 120.085 6.58239 120.326 6.73864C120.568 6.89015 120.835 7.01799 121.129 7.12216C121.422 7.22633 121.718 7.31392 122.017 7.38494L123.38 7.72585C123.93 7.85369 124.458 8.02651 124.964 8.24432C125.475 8.46212 125.932 8.73674 126.335 9.06818C126.742 9.39962 127.064 9.79972 127.301 10.2685C127.538 10.7372 127.656 11.2865 127.656 11.9162C127.656 12.7685 127.438 13.5189 127.002 14.1676C126.567 14.8116 125.937 15.3158 125.113 15.6804C124.294 16.0402 123.302 16.2202 122.137 16.2202C121.006 16.2202 120.023 16.045 119.19 15.6946C118.361 15.3442 117.713 14.8329 117.244 14.1605C116.78 13.4882 116.529 12.669 116.491 11.7031H119.083C119.121 12.2098 119.278 12.6312 119.552 12.9673C119.827 13.3035 120.184 13.5545 120.625 13.7202C121.07 13.8859 121.567 13.9688 122.116 13.9688C122.689 13.9688 123.191 13.8835 123.622 13.7131C124.057 13.5379 124.398 13.2964 124.645 12.9886C124.891 12.6761 125.016 12.3116 125.021 11.8949C125.016 11.5161 124.905 11.2036 124.687 10.9574C124.469 10.7064 124.164 10.4981 123.771 10.3324C123.383 10.1619 122.928 10.0104 122.407 9.87784L120.752 9.4517C119.555 9.14394 118.608 8.67756 117.912 8.05256C117.22 7.42282 116.875 6.58712 116.875 5.54545C116.875 4.68845 117.107 3.93797 117.571 3.29403C118.039 2.65009 118.676 2.15057 119.481 1.79545C120.286 1.43561 121.198 1.25568 122.216 1.25568C123.248 1.25568 124.152 1.43561 124.929 1.79545C125.71 2.15057 126.323 2.64536 126.768 3.27983C127.213 3.90956 127.443 4.634 127.457 5.45312H124.922ZM134.65 16.2131C133.561 16.2131 132.626 15.974 131.844 15.4957C131.068 15.0175 130.469 14.357 130.048 13.5142C129.631 12.6667 129.423 11.6913 129.423 10.5881C129.423 9.48011 129.636 8.50237 130.062 7.65483C130.488 6.80256 131.089 6.13968 131.866 5.66619C132.647 5.18797 133.57 4.94886 134.636 4.94886C135.521 4.94886 136.305 5.11222 136.987 5.43892C137.673 5.76089 138.22 6.2178 138.627 6.80966C139.034 7.39678 139.266 8.08333 139.323 8.86932H136.866C136.766 8.34375 136.53 7.90578 136.156 7.5554C135.786 7.20028 135.291 7.02273 134.671 7.02273C134.146 7.02273 133.684 7.16477 133.286 7.44886C132.888 7.72822 132.578 8.13068 132.356 8.65625C132.138 9.18182 132.029 9.81155 132.029 10.5455C132.029 11.2888 132.138 11.928 132.356 12.4631C132.574 12.9934 132.879 13.4029 133.272 13.6918C133.67 13.9759 134.136 14.1179 134.671 14.1179C135.05 14.1179 135.388 14.0469 135.687 13.9048C135.99 13.758 136.243 13.5473 136.447 13.2727C136.65 12.9981 136.79 12.6643 136.866 12.2713H139.323C139.262 13.0431 139.034 13.7273 138.641 14.3239C138.248 14.9157 137.713 15.3797 137.036 15.7159C136.359 16.0473 135.564 16.2131 134.65 16.2131ZM141.434 16V5.09091H144.005V16H141.434ZM142.727 3.54261C142.32 3.54261 141.969 3.40767 141.676 3.13778C141.382 2.86316 141.235 2.53409 141.235 2.15057C141.235 1.76231 141.382 1.43324 141.676 1.16335C141.969 0.88873 142.32 0.75142 142.727 0.75142C143.139 0.75142 143.489 0.88873 143.778 1.16335C144.072 1.43324 144.218 1.76231 144.218 2.15057C144.218 2.53409 144.072 2.86316 143.778 3.13778C143.489 3.40767 143.139 3.54261 142.727 3.54261ZM151.479 16.2131C150.385 16.2131 149.44 15.9858 148.645 15.5312C147.854 15.072 147.246 14.4233 146.82 13.5852C146.393 12.7424 146.18 11.7505 146.18 10.6094C146.18 9.48722 146.393 8.50237 146.82 7.65483C147.25 6.80256 147.852 6.13968 148.624 5.66619C149.395 5.18797 150.302 4.94886 151.344 4.94886C152.016 4.94886 152.651 5.05777 153.247 5.27557C153.848 5.48864 154.379 5.82008 154.838 6.26989C155.302 6.7197 155.667 7.29261 155.932 7.98864C156.197 8.67992 156.33 9.50379 156.33 10.4602V11.2486H147.388V9.51562H153.865C153.86 9.0232 153.754 8.58523 153.545 8.2017C153.337 7.81345 153.046 7.50805 152.672 7.28551C152.303 7.06297 151.872 6.9517 151.379 6.9517C150.854 6.9517 150.392 7.07955 149.994 7.33523C149.597 7.58617 149.286 7.91761 149.064 8.32955C148.846 8.73674 148.735 9.18419 148.73 9.67188V11.1847C148.73 11.8191 148.846 12.3636 149.078 12.8182C149.31 13.268 149.634 13.6136 150.051 13.8551C150.468 14.0919 150.955 14.2102 151.514 14.2102C151.888 14.2102 152.227 14.1581 152.53 14.054C152.833 13.9451 153.096 13.7865 153.318 13.5781C153.541 13.3698 153.709 13.1117 153.822 12.804L156.223 13.0739C156.071 13.7083 155.783 14.2623 155.357 14.7358C154.935 15.2045 154.395 15.5691 153.737 15.8295C153.079 16.0852 152.326 16.2131 151.479 16.2131ZM161.076 9.60795V16H158.505V5.09091H160.962V6.9446H161.09C161.341 6.33381 161.741 5.84848 162.29 5.48864C162.844 5.12879 163.528 4.94886 164.343 4.94886C165.096 4.94886 165.751 5.10985 166.31 5.43182C166.873 5.75379 167.309 6.22017 167.617 6.83097C167.929 7.44176 168.083 8.18276 168.078 9.05398V16H165.507V9.4517C165.507 8.72254 165.318 8.15199 164.939 7.74006C164.565 7.32812 164.047 7.12216 163.384 7.12216C162.934 7.12216 162.534 7.22159 162.184 7.42045C161.838 7.61458 161.566 7.89631 161.367 8.26562C161.173 8.63494 161.076 9.08239 161.076 9.60795ZM175.451 16.2131C174.362 16.2131 173.426 15.974 172.645 15.4957C171.869 15.0175 171.27 14.357 170.848 13.5142C170.432 12.6667 170.223 11.6913 170.223 10.5881C170.223 9.48011 170.436 8.50237 170.863 7.65483C171.289 6.80256 171.89 6.13968 172.667 5.66619C173.448 5.18797 174.371 4.94886 175.436 4.94886C176.322 4.94886 177.105 5.11222 177.787 5.43892C178.474 5.76089 179.021 6.2178 179.428 6.80966C179.835 7.39678 180.067 8.08333 180.124 8.86932H177.667C177.567 8.34375 177.33 7.90578 176.956 7.5554C176.587 7.20028 176.092 7.02273 175.472 7.02273C174.946 7.02273 174.485 7.16477 174.087 7.44886C173.689 7.72822 173.379 8.13068 173.157 8.65625C172.939 9.18182 172.83 9.81155 172.83 10.5455C172.83 11.2888 172.939 11.928 173.157 12.4631C173.374 12.9934 173.68 13.4029 174.073 13.6918C174.471 13.9759 174.937 14.1179 175.472 14.1179C175.851 14.1179 176.189 14.0469 176.488 13.9048C176.791 13.758 177.044 13.5473 177.248 13.2727C177.451 12.9981 177.591 12.6643 177.667 12.2713H180.124C180.062 13.0431 179.835 13.7273 179.442 14.3239C179.049 14.9157 178.514 15.3797 177.837 15.7159C177.16 16.0473 176.364 16.2131 175.451 16.2131ZM187.065 16.2131C185.971 16.2131 185.026 15.9858 184.231 15.5312C183.44 15.072 182.832 14.4233 182.406 13.5852C181.979 12.7424 181.766 11.7505 181.766 10.6094C181.766 9.48722 181.979 8.50237 182.406 7.65483C182.836 6.80256 183.438 6.13968 184.21 5.66619C184.981 5.18797 185.888 4.94886 186.93 4.94886C187.602 4.94886 188.237 5.05777 188.833 5.27557C189.434 5.48864 189.965 5.82008 190.424 6.26989C190.888 6.7197 191.253 7.29261 191.518 7.98864C191.783 8.67992 191.915 9.50379 191.915 10.4602V11.2486H182.974V9.51562H189.451C189.446 9.0232 189.34 8.58523 189.131 8.2017C188.923 7.81345 188.632 7.50805 188.258 7.28551C187.888 7.06297 187.458 6.9517 186.965 6.9517C186.44 6.9517 185.978 7.07955 185.58 7.33523C185.183 7.58617 184.872 7.91761 184.65 8.32955C184.432 8.73674 184.321 9.18419 184.316 9.67188V11.1847C184.316 11.8191 184.432 12.3636 184.664 12.8182C184.896 13.268 185.22 13.6136 185.637 13.8551C186.054 14.0919 186.541 14.2102 187.1 14.2102C187.474 14.2102 187.813 14.1581 188.116 14.054C188.419 13.9451 188.682 13.7865 188.904 13.5781C189.127 13.3698 189.295 13.1117 189.408 12.804L191.809 13.0739C191.657 13.7083 191.369 14.2623 190.942 14.7358C190.521 15.2045 189.981 15.5691 189.323 15.8295C188.665 16.0852 187.912 16.2131 187.065 16.2131ZM199.165 1.45455H202.39L206.708 11.9943H206.878L211.196 1.45455H214.421V16H211.892V6.0071H211.757L207.738 15.9574H205.848L201.828 5.9858H201.694V16H199.165V1.45455ZM224.13 11.4119V5.09091H226.701V16H224.208V14.0611H224.094C223.848 14.6719 223.443 15.1714 222.88 15.5597C222.321 15.9479 221.632 16.142 220.813 16.142C220.098 16.142 219.466 15.9834 218.917 15.6662C218.372 15.3442 217.946 14.8778 217.638 14.267C217.33 13.6515 217.176 12.9081 217.176 12.0369V5.09091H219.748V11.6392C219.748 12.3305 219.937 12.8797 220.316 13.2869C220.694 13.6941 221.192 13.8977 221.807 13.8977C222.186 13.8977 222.553 13.8054 222.908 13.6207C223.263 13.4361 223.554 13.1615 223.782 12.7969C224.014 12.4276 224.13 11.9659 224.13 11.4119ZM237.967 7.97443L235.623 8.23011C235.557 7.99337 235.441 7.77083 235.275 7.5625C235.114 7.35417 234.896 7.18608 234.621 7.05824C234.347 6.9304 234.011 6.86648 233.613 6.86648C233.078 6.86648 232.628 6.98248 232.263 7.21449C231.904 7.4465 231.726 7.74716 231.731 8.11648C231.726 8.43371 231.842 8.69176 232.079 8.89062C232.32 9.08949 232.718 9.25284 233.272 9.38068L235.133 9.77841C236.165 10.0009 236.932 10.3537 237.434 10.8366C237.941 11.3196 238.196 11.9517 238.201 12.733C238.196 13.4195 237.995 14.0256 237.597 14.5511C237.204 15.072 236.657 15.4792 235.957 15.7727C235.256 16.0663 234.451 16.2131 233.542 16.2131C232.207 16.2131 231.132 15.9337 230.317 15.375C229.503 14.8116 229.018 14.0279 228.862 13.0241L231.369 12.7827C231.482 13.2751 231.724 13.6468 232.093 13.8977C232.462 14.1487 232.943 14.2741 233.535 14.2741C234.146 14.2741 234.636 14.1487 235.005 13.8977C235.379 13.6468 235.566 13.3366 235.566 12.9673C235.566 12.6548 235.445 12.3968 235.204 12.1932C234.967 11.9896 234.598 11.8333 234.096 11.7244L232.235 11.3338C231.189 11.116 230.415 10.7491 229.913 10.233C229.411 9.71212 229.162 9.05398 229.167 8.25852C229.162 7.58617 229.344 7.00379 229.714 6.51136C230.088 6.0142 230.606 5.63068 231.269 5.3608C231.937 5.08617 232.706 4.94886 233.577 4.94886C234.856 4.94886 235.862 5.22112 236.596 5.76562C237.335 6.31013 237.791 7.0464 237.967 7.97443ZM245.151 16.2131C244.057 16.2131 243.112 15.9858 242.317 15.5312C241.526 15.072 240.918 14.4233 240.491 13.5852C240.065 12.7424 239.852 11.7505 239.852 10.6094C239.852 9.48722 240.065 8.50237 240.491 7.65483C240.922 6.80256 241.524 6.13968 242.295 5.66619C243.067 5.18797 243.974 4.94886 245.016 4.94886C245.688 4.94886 246.322 5.05777 246.919 5.27557C247.52 5.48864 248.051 5.82008 248.51 6.26989C248.974 6.7197 249.339 7.29261 249.604 7.98864C249.869 8.67992 250.001 9.50379 250.001 10.4602V11.2486H241.06V9.51562H247.537C247.532 9.0232 247.426 8.58523 247.217 8.2017C247.009 7.81345 246.718 7.50805 246.344 7.28551C245.974 7.06297 245.544 6.9517 245.051 6.9517C244.526 6.9517 244.064 7.07955 243.666 7.33523C243.268 7.58617 242.958 7.91761 242.736 8.32955C242.518 8.73674 242.407 9.18419 242.402 9.67188V11.1847C242.402 11.8191 242.518 12.3636 242.75 12.8182C242.982 13.268 243.306 13.6136 243.723 13.8551C244.14 14.0919 244.627 14.2102 245.186 14.2102C245.56 14.2102 245.899 14.1581 246.202 14.054C246.505 13.9451 246.768 13.7865 246.99 13.5781C247.213 13.3698 247.381 13.1117 247.494 12.804L249.895 13.0739C249.743 13.7083 249.455 14.2623 249.028 14.7358C248.607 15.2045 248.067 15.5691 247.409 15.8295C246.751 16.0852 245.998 16.2131 245.151 16.2131ZM259.13 11.4119V5.09091H261.701V16H259.208V14.0611H259.094C258.848 14.6719 258.443 15.1714 257.88 15.5597C257.321 15.9479 256.632 16.142 255.813 16.142C255.098 16.142 254.466 15.9834 253.917 15.6662C253.372 15.3442 252.946 14.8778 252.638 14.267C252.33 13.6515 252.176 12.9081 252.176 12.0369V5.09091H254.748V11.6392C254.748 12.3305 254.937 12.8797 255.316 13.2869C255.694 13.6941 256.192 13.8977 256.807 13.8977C257.186 13.8977 257.553 13.8054 257.908 13.6207C258.263 13.4361 258.554 13.1615 258.782 12.7969C259.014 12.4276 259.13 11.9659 259.13 11.4119ZM264.344 16V5.09091H266.802V6.9446H266.93C267.157 6.3196 267.533 5.83191 268.059 5.48153C268.585 5.12642 269.212 4.94886 269.941 4.94886C270.68 4.94886 271.302 5.12879 271.809 5.48864C272.32 5.84375 272.68 6.32907 272.888 6.9446H273.002C273.244 6.33854 273.651 5.85559 274.224 5.49574C274.801 5.13116 275.486 4.94886 276.276 4.94886C277.28 4.94886 278.099 5.2661 278.734 5.90057C279.368 6.53504 279.685 7.4607 279.685 8.67756V16H277.107V9.07528C277.107 8.3982 276.927 7.90341 276.567 7.59091C276.208 7.27367 275.767 7.11506 275.246 7.11506C274.626 7.11506 274.141 7.30919 273.79 7.69744C273.445 8.08097 273.272 8.58049 273.272 9.19602V16H270.751V8.96875C270.751 8.4053 270.58 7.95549 270.239 7.61932C269.903 7.28314 269.463 7.11506 268.918 7.11506C268.549 7.11506 268.213 7.20975 267.91 7.39915C267.607 7.58381 267.365 7.84659 267.185 8.1875C267.005 8.52367 266.915 8.91667 266.915 9.36648V16H264.344Z" fill="black"/>
<path d="M19.9428 16.2131C18.8775 16.2131 17.9542 15.9787 17.1729 15.5099C16.3917 15.0412 15.7856 14.3854 15.3548 13.5426C14.9286 12.6998 14.7156 11.715 14.7156 10.5881C14.7156 9.46117 14.9286 8.47396 15.3548 7.62642C15.7856 6.77888 16.3917 6.12074 17.1729 5.65199C17.9542 5.18324 18.8775 4.94886 19.9428 4.94886C21.0082 4.94886 21.9315 5.18324 22.7127 5.65199C23.494 6.12074 24.0977 6.77888 24.5238 7.62642C24.9547 8.47396 25.1701 9.46117 25.1701 10.5881C25.1701 11.715 24.9547 12.6998 24.5238 13.5426C24.0977 14.3854 23.494 15.0412 22.7127 15.5099C21.9315 15.9787 21.0082 16.2131 19.9428 16.2131ZM19.957 14.1534C20.5347 14.1534 21.0176 13.9948 21.4059 13.6776C21.7942 13.3556 22.083 12.9247 22.2724 12.3849C22.4665 11.8452 22.5636 11.2438 22.5636 10.581C22.5636 9.91335 22.4665 9.30966 22.2724 8.76989C22.083 8.22538 21.7942 7.79214 21.4059 7.47017C21.0176 7.1482 20.5347 6.98722 19.957 6.98722C19.3652 6.98722 18.8728 7.1482 18.4798 7.47017C18.0915 7.79214 17.8003 8.22538 17.6062 8.76989C17.4168 9.30966 17.3221 9.91335 17.3221 10.581C17.3221 11.2438 17.4168 11.8452 17.6062 12.3849C17.8003 12.9247 18.0915 13.3556 18.4798 13.6776C18.8728 13.9948 19.3652 14.1534 19.957 14.1534Z" fill="#B40000"/>
<path d="M45.3015 16V5.09091H47.7589V6.9446H47.8867C48.114 6.3196 48.4904 5.83191 49.016 5.48153C49.5415 5.12642 50.1689 4.94886 50.8981 4.94886C51.6367 4.94886 52.2594 5.12879 52.766 5.48864C53.2773 5.84375 53.6372 6.32907 53.8455 6.9446H53.9592C54.2006 6.33854 54.6078 5.85559 55.1808 5.49574C55.7584 5.13116 56.4426 4.94886 57.2333 4.94886C58.2371 4.94886 59.0562 5.2661 59.6907 5.90057C60.3252 6.53504 60.6424 7.4607 60.6424 8.67756V16H58.0643V9.07528C58.0643 8.3982 57.8844 7.90341 57.5245 7.59091C57.1647 7.27367 56.7243 7.11506 56.2035 7.11506C55.5832 7.11506 55.0979 7.30919 54.7475 7.69744C54.4019 8.08097 54.229 8.58049 54.229 9.19602V16H51.7077V8.96875C51.7077 8.4053 51.5373 7.95549 51.1964 7.61932C50.8602 7.28314 50.4199 7.11506 49.8754 7.11506C49.506 7.11506 49.1699 7.20975 48.8668 7.39915C48.5638 7.58381 48.3223 7.84659 48.1424 8.1875C47.9625 8.52367 47.8725 8.91667 47.8725 9.36648V16H45.3015Z" fill="#E09700"/>
<path d="M77.9897 9.60795V16H75.4187V5.09091H77.8761V6.9446H78.0039C78.2549 6.33381 78.6549 5.84848 79.2042 5.48864C79.7582 5.12879 80.4424 4.94886 81.2567 4.94886C82.0096 4.94886 82.6654 5.10985 83.2241 5.43182C83.7875 5.75379 84.2231 6.22017 84.5309 6.83097C84.8434 7.44176 84.9973 8.18276 84.9925 9.05398V16H82.4215V9.4517C82.4215 8.72254 82.2321 8.15199 81.8533 7.74006C81.4793 7.32812 80.9608 7.12216 80.2979 7.12216C79.8481 7.12216 79.448 7.22159 79.0977 7.42045C78.752 7.61458 78.4798 7.89631 78.2809 8.26562C78.0868 8.63494 77.9897 9.08239 77.9897 9.60795Z" fill="#00AC30"/>
<path d="M98.2685 5.09091V7.07955H91.9972V5.09091H98.2685ZM93.5455 2.47727H96.1165V12.7188C96.1165 13.0644 96.1686 13.3295 96.2727 13.5142C96.3816 13.6941 96.5237 13.8172 96.6989 13.8835C96.8741 13.9498 97.0682 13.983 97.2812 13.983C97.4422 13.983 97.589 13.9711 97.7216 13.9474C97.8589 13.9238 97.9631 13.9025 98.0341 13.8835L98.4673 15.8935C98.33 15.9408 98.1335 15.9929 97.8778 16.0497C97.6269 16.1065 97.3191 16.1397 96.9545 16.1491C96.3106 16.1681 95.7306 16.071 95.2145 15.858C94.6984 15.6402 94.2888 15.304 93.9858 14.8494C93.6875 14.3949 93.5407 13.8267 93.5455 13.1449V2.47727Z" fill="#1B0BD8"/>
</svg>
